<svg id="Capa_1" enable-background="new 0 0 512 512" height="512" viewBox="0 0 512 512" width="512" xmlns="http://www.w3.org/2000/svg"><g><ellipse cx="195.527" cy="316.487" fill="#fbcdbe" rx="195.483" ry="195.483" transform="matrix(.707 -.707 .707 .707 -166.522 230.956)"/><path d="m339.145 449.116-46.466-48.476-80.263-83.733-63.785-66.554-41.926-43.726-25.978-27.098-2.45-2.57-9.179-9.569c78.383-66.624 195.683-61.155 267.547 13.819 72.004 75.113 72.234 192.553 2.5 267.907z" fill="#fdbbab"/><path d="m128.98 198.325c-7.025-4.388-16.279-2.251-20.667 4.774-4.389 7.026-2.251 16.279 4.774 20.667 14.91 9.315 6.111 24.594-4.212 28.404-9.001 3.318-17.198-1.992-22.491-7.036-6.642-6.329-19.158-32.204-6.396-46.666 5.481-6.211 4.889-15.689-1.322-21.17-6.211-5.482-15.69-4.889-21.17 1.322-25.669 29.089-8.582 72.245 8.195 88.231 36.141 34.439 81.494 9.069 85.163-26.631 1.732-16.859-6.24-32.129-21.874-41.895z" fill="#ff6d66"/><path d="m150.851 240.224c-.36 3.49-1.12 6.879-2.22 10.129l-41.926-43.726c.37-1.22.91-2.4 1.61-3.529 4.39-7.019 13.639-9.159 20.668-4.77 15.629 9.758 23.608 25.037 21.868 41.896z" fill="#dd335a"/><path d="m299.474 313.791c-22.128-23.085-61.178-21.691-87.052 3.109-25.871 24.8-28.916 63.757-6.787 86.842 22.516 23.488 61.645 21.245 87.052-3.109 25.036-24 29.773-62.863 6.787-86.842z" fill="#ff6d66"/><path d="m292.689 400.63-.01.01-80.263-83.733.01-.01c25.868-24.798 64.924-26.188 87.053-3.11 22.977 23.988 18.248 62.845-6.79 86.843z" fill="#dd335a"/><g><path d="m138.742 310.642c-8.037 2.004-12.929 10.145-10.925 18.182.083.33.333 1.336-.649 2.274-.969.926-1.923.642-2.236.548-7.938-2.366-16.293 2.15-18.66 10.088s2.149 16.292 10.087 18.66c3.109.927 6.257 1.38 9.367 1.38 8.144 0 16.017-3.113 22.166-8.988 8.503-8.125 11.879-19.796 9.031-31.219-2.004-8.039-10.144-12.932-18.181-10.925z" fill="#fdbbab"/><path d="m243.304 238.198c-2.004-8.038-10.146-12.93-18.182-10.925-8.037 2.004-12.929 10.145-10.925 18.182.083.33.333 1.336-.649 2.274-.969.926-1.924.642-2.236.548-7.939-2.363-16.292 2.15-18.66 10.088-2.367 7.938 2.149 16.292 10.087 18.66 3.109.927 6.257 1.38 9.367 1.38 8.144 0 16.018-3.113 22.166-8.988 8.504-8.125 11.88-19.796 9.032-31.219z" fill="#ffa58d"/></g><path d="m306.838 284.17-21.212-21.212c-2.813-2.813-6.628-4.393-10.606-4.393s-7.793 1.58-10.606 4.393l-21.21 21.211c-8.499 8.498-13.18 19.798-13.18 31.818 0 12.018 4.681 23.318 13.179 31.817 8.499 8.498 19.798 13.18 31.817 13.18s23.318-4.68 31.817-13.18c8.499-8.498 13.179-19.798 13.179-31.817s-4.68-23.319-13.178-31.817z" fill="#37afe2"/><path d="m393 164.07-50.806 60.285c-5.399 6.424-14.992 7.106-21.258 1.69l-14.709-12.679-13.069 14.319c-5.577 6.124-15.097 6.552-21.188.97-6.119-5.579-6.549-15.069-.97-21.188l12.509-13.699-13.309-11.479c-6.219-5.36-6.969-14.739-1.67-21.018l51.016-60.535c2.27 5.75 5.859 10.879 10.489 14.859 44.37 36.687 47.311 44.695 62.965 48.475z" fill="#7cd6f4"/><path d="m393 164.07c-60.978 72.354-49.297 58.494-50.806 60.285-5.4 6.42-14.989 7.109-21.258 1.69l-14.709-12.679-13.069 14.319c-4.73 5.189-12.289 6.29-18.198 3.09.873-1.036-9.585 11.374 79.503-94.342 21.929 19.268 26.428 24.717 38.537 27.637z" fill="#37afe2"/><path d="m512 61.479c0 3.6-1.29 7.069-3.64 9.799l-71.884 83.313c-16.269 18.868-44.676 20.878-63.455 4.69l-46.256-39.897c-17.648-15.179-20.748-43.516-4.04-62.895l48.716-56.475h130.559c5.522 0 9.999 4.477 9.999 9.999v51.466z" fill="#bbebff"/><path d="m512 61.479c0 3.6-1.29 7.069-3.64 9.799l-71.884 83.313c-11.989 13.909-30.577 18.659-47.036 13.709-14.429-4.34-19.768-12.959-38.317-27.908 2.3-2.73 89.852-106.601 118.31-140.378h32.567c5.522 0 9.999 4.477 9.999 9.999v51.466z" fill="#a5e2f7"/></g></svg>