<svg width="201" height="38" viewBox="0 0 201 38" fill="none" xmlns="http://www.w3.org/2000/svg">
<path d="M71.808 12.56C72.848 12.56 73.776 12.776 74.592 13.208C75.424 13.64 76.072 14.28 76.536 15.128C77.016 15.976 77.256 17 77.256 18.2V26H74.544V18.608C74.544 17.424 74.248 16.52 73.656 15.896C73.064 15.256 72.256 14.936 71.232 14.936C70.208 14.936 69.392 15.256 68.784 15.896C68.192 16.52 67.896 17.424 67.896 18.608V26H65.184V18.608C65.184 17.424 64.888 16.52 64.296 15.896C63.704 15.256 62.896 14.936 61.872 14.936C60.848 14.936 60.032 15.256 59.424 15.896C58.832 16.52 58.536 17.424 58.536 18.608V26H55.8V12.776H58.536V14.288C58.984 13.744 59.552 13.32 60.24 13.016C60.928 12.712 61.664 12.56 62.448 12.56C63.504 12.56 64.448 12.784 65.28 13.232C66.112 13.68 66.752 14.328 67.2 15.176C67.6 14.376 68.224 13.744 69.072 13.28C69.92 12.8 70.832 12.56 71.808 12.56ZM92.6415 12.776L84.5295 32.216H81.6975L84.3855 25.784L79.1775 12.776H82.2255L85.9455 22.856L89.8095 12.776H92.6415ZM100.25 15.008H97.8023V26H95.0423V15.008H93.4823V12.776H95.0423V11.84C95.0423 10.32 95.4423 9.216 96.2423 8.528C97.0583 7.824 98.3303 7.472 100.058 7.472V9.752C99.2263 9.752 98.6423 9.912 98.3063 10.232C97.9703 10.536 97.8023 11.072 97.8023 11.84V12.776H100.25V15.008ZM104.067 11.024C103.571 11.024 103.155 10.856 102.819 10.52C102.483 10.184 102.315 9.768 102.315 9.272C102.315 8.776 102.483 8.36 102.819 8.024C103.155 7.688 103.571 7.52 104.067 7.52C104.547 7.52 104.955 7.688 105.291 8.024C105.627 8.36 105.795 8.776 105.795 9.272C105.795 9.768 105.627 10.184 105.291 10.52C104.955 10.856 104.547 11.024 104.067 11.024ZM105.411 12.776V26H102.675V12.776H105.411ZM115.675 12.56C116.715 12.56 117.643 12.776 118.459 13.208C119.291 13.64 119.939 14.28 120.403 15.128C120.867 15.976 121.099 17 121.099 18.2V26H118.387V18.608C118.387 17.424 118.091 16.52 117.499 15.896C116.907 15.256 116.099 14.936 115.075 14.936C114.051 14.936 113.235 15.256 112.627 15.896C112.035 16.52 111.739 17.424 111.739 18.608V26H109.003V12.776H111.739V14.288C112.187 13.744 112.755 13.32 113.443 13.016C114.147 12.712 114.891 12.56 115.675 12.56ZM123.677 19.328C123.677 18 123.949 16.824 124.493 15.8C125.053 14.776 125.805 13.984 126.749 13.424C127.709 12.848 128.765 12.56 129.917 12.56C130.957 12.56 131.861 12.768 132.629 13.184C133.413 13.584 134.037 14.088 134.501 14.696V12.776H137.261V26H134.501V24.032C134.037 24.656 133.405 25.176 132.605 25.592C131.805 26.008 130.893 26.216 129.869 26.216C128.733 26.216 127.693 25.928 126.749 25.352C125.805 24.76 125.053 23.944 124.493 22.904C123.949 21.848 123.677 20.656 123.677 19.328ZM134.501 19.376C134.501 18.464 134.309 17.672 133.925 17C133.557 16.328 133.069 15.816 132.461 15.464C131.853 15.112 131.197 14.936 130.493 14.936C129.789 14.936 129.133 15.112 128.525 15.464C127.917 15.8 127.421 16.304 127.037 16.976C126.669 17.632 126.485 18.416 126.485 19.328C126.485 20.24 126.669 21.04 127.037 21.728C127.421 22.416 127.917 22.944 128.525 23.312C129.149 23.664 129.805 23.84 130.493 23.84C131.197 23.84 131.853 23.664 132.461 23.312C133.069 22.96 133.557 22.448 133.925 21.776C134.309 21.088 134.501 20.288 134.501 19.376ZM147.527 12.56C148.567 12.56 149.495 12.776 150.311 13.208C151.143 13.64 151.791 14.28 152.255 15.128C152.719 15.976 152.951 17 152.951 18.2V26H150.239V18.608C150.239 17.424 149.943 16.52 149.351 15.896C148.759 15.256 147.951 14.936 146.927 14.936C145.903 14.936 145.087 15.256 144.479 15.896C143.887 16.52 143.591 17.424 143.591 18.608V26H140.855V12.776H143.591V14.288C144.039 13.744 144.607 13.32 145.295 13.016C145.999 12.712 146.743 12.56 147.527 12.56ZM155.529 19.376C155.529 18.016 155.801 16.824 156.345 15.8C156.905 14.76 157.673 13.96 158.649 13.4C159.625 12.84 160.745 12.56 162.009 12.56C163.609 12.56 164.929 12.944 165.969 13.712C167.025 14.464 167.737 15.544 168.105 16.952H165.153C164.913 16.296 164.529 15.784 164.001 15.416C163.473 15.048 162.809 14.864 162.009 14.864C160.889 14.864 159.993 15.264 159.321 16.064C158.665 16.848 158.337 17.952 158.337 19.376C158.337 20.8 158.665 21.912 159.321 22.712C159.993 23.512 160.889 23.912 162.009 23.912C163.593 23.912 164.641 23.216 165.153 21.824H168.105C167.721 23.168 167.001 24.24 165.945 25.04C164.889 25.824 163.577 26.216 162.009 26.216C160.745 26.216 159.625 25.936 158.649 25.376C157.673 24.8 156.905 24 156.345 22.976C155.801 21.936 155.529 20.736 155.529 19.376ZM182.951 19.064C182.951 19.56 182.919 20.008 182.855 20.408H172.751C172.831 21.464 173.223 22.312 173.927 22.952C174.631 23.592 175.495 23.912 176.519 23.912C177.991 23.912 179.031 23.296 179.639 22.064H182.591C182.191 23.28 181.463 24.28 180.407 25.064C179.367 25.832 178.071 26.216 176.519 26.216C175.255 26.216 174.119 25.936 173.111 25.376C172.119 24.8 171.335 24 170.759 22.976C170.199 21.936 169.919 20.736 169.919 19.376C169.919 18.016 170.191 16.824 170.735 15.8C171.295 14.76 172.071 13.96 173.063 13.4C174.071 12.84 175.223 12.56 176.519 12.56C177.767 12.56 178.879 12.832 179.855 13.376C180.831 13.92 181.591 14.688 182.135 15.68C182.679 16.656 182.951 17.784 182.951 19.064ZM180.095 18.2C180.079 17.192 179.719 16.384 179.015 15.776C178.311 15.168 177.439 14.864 176.399 14.864C175.455 14.864 174.647 15.168 173.975 15.776C173.303 16.368 172.903 17.176 172.775 18.2H180.095ZM190.444 26.216C189.404 26.216 188.468 26.032 187.636 25.664C186.82 25.28 186.172 24.768 185.692 24.128C185.212 23.472 184.956 22.744 184.924 21.944H187.756C187.804 22.504 188.068 22.976 188.548 23.36C189.044 23.728 189.66 23.912 190.396 23.912C191.164 23.912 191.756 23.768 192.172 23.48C192.604 23.176 192.82 22.792 192.82 22.328C192.82 21.832 192.58 21.464 192.1 21.224C191.636 20.984 190.892 20.72 189.868 20.432C188.876 20.16 188.068 19.896 187.444 19.64C186.82 19.384 186.276 18.992 185.812 18.464C185.364 17.936 185.14 17.24 185.14 16.376C185.14 15.672 185.348 15.032 185.764 14.456C186.18 13.864 186.772 13.4 187.54 13.064C188.324 12.728 189.22 12.56 190.228 12.56C191.732 12.56 192.94 12.944 193.852 13.712C194.78 14.464 195.276 15.496 195.34 16.808H192.604C192.556 16.216 192.316 15.744 191.884 15.392C191.452 15.04 190.868 14.864 190.132 14.864C189.412 14.864 188.86 15 188.476 15.272C188.092 15.544 187.9 15.904 187.9 16.352C187.9 16.704 188.028 17 188.284 17.24C188.54 17.48 188.852 17.672 189.22 17.816C189.588 17.944 190.132 18.112 190.852 18.32C191.812 18.576 192.596 18.84 193.204 19.112C193.828 19.368 194.364 19.752 194.812 20.264C195.26 20.776 195.492 21.456 195.508 22.304C195.508 23.056 195.3 23.728 194.884 24.32C194.468 24.912 193.876 25.376 193.108 25.712C192.356 26.048 191.468 26.216 190.444 26.216Z" fill="white"/>
<path fill-rule="evenodd" clip-rule="evenodd" d="M25.9591 16.7233C26.0721 16.8736 26.1693 17.0356 26.2486 17.2076C30.9256 18.3883 34.3687 22.2955 34.3687 26.921C34.3687 32.4785 29.3984 37 23.2893 37C20.0997 37 17.2213 35.7672 15.198 33.7984H7.51731C5.86426 33.7984 4.51935 32.5749 4.51935 31.0711C4.51935 30.2074 4.96343 29.4368 5.65433 28.9367C4.96343 28.4367 4.51935 27.666 4.51935 26.8023C4.51935 25.9387 4.96343 25.168 5.65433 24.6679C4.96343 24.1679 4.51935 23.3972 4.51935 22.5336C4.51935 21.6699 4.96343 20.8992 5.65433 20.3992C4.96343 19.8991 4.51935 19.1285 4.51935 18.2648C4.51935 16.761 5.86426 15.5375 7.51731 15.5375H9.21702C8.88516 15.0987 8.69042 14.5678 8.69042 13.996C8.69042 13.4243 8.88522 12.8934 9.21702 12.4545H3.99796C2.34491 12.4545 1 11.2311 1 9.72727C1 8.22348 2.34491 7 3.99796 7H19.9654C21.6184 7 22.9633 8.22348 22.9633 9.72727C22.9633 10.299 22.7685 10.8299 22.4367 11.2688H27.6558C29.3088 11.2688 30.6537 12.4922 30.6537 13.996C30.6537 15.4998 29.3088 16.7233 27.6558 16.7233H25.9591ZM29.3503 13.996C29.3503 13.1461 28.5902 12.4545 27.6558 12.4545H11.6884C10.754 12.4545 9.99388 13.1461 9.99388 13.996C9.99388 14.846 10.754 15.5375 11.6884 15.5375H23.4847H27.6558C28.5902 15.5375 29.3503 14.846 29.3503 13.996ZM2.30346 9.72727C2.30346 10.5772 3.06357 11.2688 3.99796 11.2688H19.9654C20.8997 11.2688 21.6599 10.5772 21.6599 9.72727C21.6599 8.87731 20.8997 8.18577 19.9654 8.18577H3.99796C3.06357 8.18577 2.30346 8.87731 2.30346 9.72727ZM23.4847 16.7233H7.51731C6.58298 16.7233 5.82281 17.4148 5.82281 18.2648C5.82281 19.1148 6.58298 19.8063 7.51731 19.8063H15.449C17.4559 17.9761 20.2297 16.8419 23.2893 16.8419C23.6042 16.8419 23.9158 16.8546 24.2241 16.8782C23.9986 16.7788 23.7472 16.7233 23.4847 16.7233ZM14.3354 20.9921H7.51731C6.58292 20.9921 5.82281 21.6836 5.82281 22.5336C5.82281 23.3836 6.58292 24.0751 7.51731 24.0751H12.6602C13.0235 22.9542 13.5955 21.9142 14.3354 20.9921ZM12.361 25.2608H7.51731C6.58292 25.2608 5.82281 25.9523 5.82281 26.8023C5.82281 27.6523 6.58292 28.3438 7.51731 28.3438H12.3208C12.2482 27.8788 12.2098 27.4039 12.2098 26.921C12.2098 26.3555 12.2621 25.8011 12.361 25.2608ZM5.82281 31.0711C5.82281 31.9211 6.58292 32.6126 7.51731 32.6126H14.1506C13.4499 31.6845 12.9157 30.645 12.5869 29.5296H7.51731C6.58292 29.5296 5.82281 30.2211 5.82281 31.0711ZM13.5133 26.921C13.5133 31.8247 17.8988 35.8142 23.2893 35.8142C28.6797 35.8142 33.0652 31.8247 33.0652 26.921C33.0652 22.0172 28.6797 18.0277 23.2893 18.0277C17.8988 18.0277 13.5133 22.0172 13.5133 26.921ZM21.6268 24.8945C21.6268 25.6148 22.3712 26.2009 23.2861 26.2009C25.0329 26.2009 26.4539 27.4026 26.4539 28.8797C26.4539 30.1371 25.4241 31.1943 24.0404 31.4812V31.7776C24.0404 32.1565 23.7026 32.4637 23.2861 32.4637C22.8696 32.4637 22.5319 32.1565 22.5319 31.7776V31.4812C21.1482 31.1943 20.1184 30.1371 20.1184 28.8797C20.1184 28.5008 20.4561 28.1936 20.8726 28.1936C21.2891 28.1936 21.6268 28.5008 21.6268 28.8797C21.6268 29.6002 22.3712 30.1863 23.2861 30.1863C24.2011 30.1863 24.9454 29.6002 24.9454 28.8797C24.9454 28.1593 24.2011 27.5732 23.2861 27.5732C21.5394 27.5732 20.1184 26.3715 20.1184 24.8945C20.1184 23.6371 21.1482 22.5799 22.5319 22.293V21.9361C22.5319 21.5573 22.8696 21.25 23.2861 21.25C23.7026 21.25 24.0404 21.5573 24.0404 21.9361V22.293C25.4241 22.5799 26.4539 23.6371 26.4539 24.8945C26.4539 25.2733 26.1162 25.5806 25.6997 25.5806C25.2832 25.5806 24.9454 25.2733 24.9454 24.8945C24.9454 24.174 24.2011 23.5879 23.2861 23.5879C22.3712 23.5879 21.6268 24.174 21.6268 24.8945Z" fill="#FF872C"/>
<path d="M26.2486 17.2076L26.0216 17.3123L26.0716 17.4207L26.1874 17.45L26.2486 17.2076ZM25.9591 16.7233V16.4733H25.4581L25.7593 16.8736L25.9591 16.7233ZM15.198 33.7984L15.3723 33.6192L15.2995 33.5484H15.198V33.7984ZM5.65433 28.9367L5.80091 29.1392L6.08073 28.9367L5.80091 28.7342L5.65433 28.9367ZM5.65433 24.6679L5.80091 24.8705L6.08073 24.6679L5.80091 24.4654L5.65433 24.6679ZM5.65433 20.3992L5.80091 20.6017L6.08073 20.3992L5.80091 20.1967L5.65433 20.3992ZM9.21702 15.5375V15.7875H9.7195L9.41642 15.3867L9.21702 15.5375ZM9.21702 12.4545L9.41644 12.6053L9.71944 12.2045H9.21702V12.4545ZM22.4367 11.2688L22.2373 11.118L21.9343 11.5188H22.4367V11.2688ZM15.449 19.8063V20.0563H15.5459L15.6175 19.991L15.449 19.8063ZM24.2241 16.8782L24.2051 17.1274L24.3249 16.6494L24.2241 16.8782ZM14.3354 20.9921L14.5304 21.1485L14.8565 20.7421H14.3354V20.9921ZM12.6602 24.0751V24.3251H12.842L12.8981 24.1521L12.6602 24.0751ZM12.361 25.2608L12.6069 25.3058L12.6609 25.0108H12.361V25.2608ZM12.3208 28.3438V28.5938H12.6128L12.5678 28.3053L12.3208 28.3438ZM14.1506 32.6126V32.8626H14.6525L14.3501 32.462L14.1506 32.6126ZM12.5869 29.5296L12.8267 29.4589L12.7738 29.2796H12.5869V29.5296ZM24.0404 31.4812L23.9896 31.2364L23.7904 31.2777V31.4812H24.0404ZM22.5319 31.4812H22.7819V31.2777L22.5827 31.2364L22.5319 31.4812ZM22.5319 22.293L22.5827 22.5378L22.7819 22.4965V22.293H22.5319ZM24.0404 22.293H23.7904V22.4965L23.9896 22.5378L24.0404 22.293ZM26.4756 17.1028C26.3888 16.9146 26.2825 16.7373 26.1588 16.573L25.7593 16.8736C25.8618 17.0099 25.9498 17.1567 26.0216 17.3123L26.4756 17.1028ZM34.6187 26.921C34.6187 22.1636 31.0801 18.1695 26.3098 16.9652L26.1874 17.45C30.7711 18.6071 34.1187 22.4273 34.1187 26.921H34.6187ZM23.2893 37.25C29.5137 37.25 34.6187 32.6384 34.6187 26.921H34.1187C34.1187 32.3187 29.2832 36.75 23.2893 36.75V37.25ZM15.0236 33.9775C17.0941 35.9922 20.0352 37.25 23.2893 37.25V36.75C20.1643 36.75 17.3485 35.5421 15.3723 33.6192L15.0236 33.9775ZM7.51731 34.0484H15.198V33.5484H7.51731V34.0484ZM4.26935 31.0711C4.26935 32.7347 5.74897 34.0484 7.51731 34.0484V33.5484C5.97954 33.5484 4.76935 32.4151 4.76935 31.0711H4.26935ZM5.50776 28.7342C4.7599 29.2755 4.26935 30.1179 4.26935 31.0711H4.76935C4.76935 30.297 5.16697 29.5981 5.80091 29.1392L5.50776 28.7342ZM4.26935 26.8023C4.26935 27.7556 4.7599 28.598 5.50776 29.1392L5.80091 28.7342C5.16697 28.2754 4.76935 27.5764 4.76935 26.8023H4.26935ZM5.50776 24.4654C4.7599 25.0067 4.26935 25.8491 4.26935 26.8023H4.76935C4.76935 26.0283 5.16697 25.3293 5.80091 24.8705L5.50776 24.4654ZM4.26935 22.5336C4.26935 23.4868 4.7599 24.3292 5.50776 24.8705L5.80091 24.4654C5.16697 24.0066 4.76935 23.3076 4.76935 22.5336H4.26935ZM5.50776 20.1967C4.7599 20.7379 4.26935 21.5803 4.26935 22.5336H4.76935C4.76935 21.7595 5.16697 21.0605 5.80091 20.6017L5.50776 20.1967ZM4.26935 18.2648C4.26935 19.218 4.7599 20.0604 5.50776 20.6017L5.80091 20.1967C5.16697 19.7378 4.76935 19.0389 4.76935 18.2648H4.26935ZM7.51731 15.2875C5.74897 15.2875 4.26935 16.6012 4.26935 18.2648H4.76935C4.76935 16.9208 5.97954 15.7875 7.51731 15.7875V15.2875ZM9.21702 15.2875H7.51731V15.7875H9.21702V15.2875ZM8.44042 13.996C8.44042 14.6261 8.65534 15.2093 9.01761 15.6883L9.41642 15.3867C9.11497 14.9881 8.94042 14.5094 8.94042 13.996H8.44042ZM9.0176 12.3038C8.65542 12.7828 8.44042 13.366 8.44042 13.996H8.94042C8.94042 13.4826 9.11503 13.004 9.41644 12.6053L9.0176 12.3038ZM3.99796 12.7045H9.21702V12.2045H3.99796V12.7045ZM0.75 9.72727C0.75 11.3909 2.22963 12.7045 3.99796 12.7045V12.2045C2.46019 12.2045 1.25 11.0712 1.25 9.72727H0.75ZM3.99796 6.75C2.22963 6.75 0.75 8.06367 0.75 9.72727H1.25C1.25 8.38328 2.46019 7.25 3.99796 7.25V6.75ZM19.9654 6.75H3.99796V7.25H19.9654V6.75ZM23.2133 9.72727C23.2133 8.06367 21.7337 6.75 19.9654 6.75V7.25C21.5031 7.25 22.7133 8.38328 22.7133 9.72727H23.2133ZM22.6361 11.4195C22.9983 10.9405 23.2133 10.3573 23.2133 9.72727H22.7133C22.7133 10.2407 22.5387 10.7193 22.2373 11.118L22.6361 11.4195ZM27.6558 11.0188H22.4367V11.5188H27.6558V11.0188ZM30.9037 13.996C30.9037 12.3324 29.4241 11.0188 27.6558 11.0188V11.5188C29.1935 11.5188 30.4037 12.6521 30.4037 13.996H30.9037ZM27.6558 16.9733C29.4241 16.9733 30.9037 15.6596 30.9037 13.996H30.4037C30.4037 15.34 29.1935 16.4733 27.6558 16.4733V16.9733ZM25.9591 16.9733H27.6558V16.4733H25.9591V16.9733ZM27.6558 12.7045C28.4749 12.7045 29.1003 13.3059 29.1003 13.996H29.6003C29.6003 12.9863 28.7055 12.2045 27.6558 12.2045V12.7045ZM11.6884 12.7045H27.6558V12.2045H11.6884V12.7045ZM10.2439 13.996C10.2439 13.3059 10.8693 12.7045 11.6884 12.7045V12.2045C10.6387 12.2045 9.74388 12.9863 9.74388 13.996H10.2439ZM11.6884 15.2875C10.8693 15.2875 10.2439 14.6862 10.2439 13.996H9.74388C9.74388 15.0058 10.6387 15.7875 11.6884 15.7875V15.2875ZM23.4847 15.2875H11.6884V15.7875H23.4847V15.2875ZM27.6558 15.2875H23.4847V15.7875H27.6558V15.2875ZM29.1003 13.996C29.1003 14.6862 28.4749 15.2875 27.6558 15.2875V15.7875C28.7055 15.7875 29.6003 15.0058 29.6003 13.996H29.1003ZM3.99796 11.0188C3.17886 11.0188 2.55346 10.4174 2.55346 9.72727H2.05346C2.05346 10.737 2.94829 11.5188 3.99796 11.5188V11.0188ZM19.9654 11.0188H3.99796V11.5188H19.9654V11.0188ZM21.4099 9.72727C21.4099 10.4174 20.7845 11.0188 19.9654 11.0188V11.5188C21.015 11.5188 21.9099 10.737 21.9099 9.72727H21.4099ZM19.9654 8.43577C20.7845 8.43577 21.4099 9.03711 21.4099 9.72727H21.9099C21.9099 8.71751 21.015 7.93577 19.9654 7.93577V8.43577ZM3.99796 8.43577H19.9654V7.93577H3.99796V8.43577ZM2.55346 9.72727C2.55346 9.03711 3.17886 8.43577 3.99796 8.43577V7.93577C2.94829 7.93577 2.05346 8.71751 2.05346 9.72727H2.55346ZM7.51731 16.9733H23.4847V16.4733H7.51731V16.9733ZM6.07281 18.2648C6.07281 17.5746 6.69827 16.9733 7.51731 16.9733V16.4733C6.4677 16.4733 5.57281 17.255 5.57281 18.2648H6.07281ZM7.51731 19.5563C6.69827 19.5563 6.07281 18.9549 6.07281 18.2648H5.57281C5.57281 19.2746 6.4677 20.0563 7.51731 20.0563V19.5563ZM15.449 19.5563H7.51731V20.0563H15.449V19.5563ZM23.2893 16.5919C20.1678 16.5919 17.3338 17.7491 15.2805 19.6216L15.6175 19.991C17.578 18.2031 20.2916 17.0919 23.2893 17.0919V16.5919ZM24.2431 16.6289C23.9289 16.6049 23.6109 16.5919 23.2893 16.5919V17.0919C23.5975 17.0919 23.9027 17.1044 24.2051 17.1274L24.2431 16.6289ZM23.4847 16.9733C23.7119 16.9733 23.929 17.0213 24.1233 17.1069L24.3249 16.6494C24.0682 16.5363 23.7825 16.4733 23.4847 16.4733V16.9733ZM7.51731 21.2421H14.3354V20.7421H7.51731V21.2421ZM6.07281 22.5336C6.07281 21.8434 6.69821 21.2421 7.51731 21.2421V20.7421C6.46763 20.7421 5.57281 21.5238 5.57281 22.5336H6.07281ZM7.51731 23.8251C6.6982 23.8251 6.07281 23.2238 6.07281 22.5336H5.57281C5.57281 23.5434 6.46764 24.3251 7.51731 24.3251V23.8251ZM12.6602 23.8251H7.51731V24.3251H12.6602V23.8251ZM14.1404 20.8356C13.3825 21.7802 12.7955 22.847 12.4224 23.998L12.8981 24.1521C13.2516 23.0615 13.8086 22.0481 14.5304 21.1485L14.1404 20.8356ZM7.51731 25.5108H12.361V25.0108H7.51731V25.5108ZM6.07281 26.8023C6.07281 26.1121 6.6982 25.5108 7.51731 25.5108V25.0108C6.46764 25.0108 5.57281 25.7925 5.57281 26.8023H6.07281ZM7.51731 28.0938C6.6982 28.0938 6.07281 27.4925 6.07281 26.8023H5.57281C5.57281 27.8122 6.46764 28.5938 7.51731 28.5938V28.0938ZM12.3208 28.0938H7.51731V28.5938H12.3208V28.0938ZM11.9598 26.921C11.9598 27.4172 11.9993 27.905 12.0737 28.3824L12.5678 28.3053C12.4972 27.8527 12.4598 27.3907 12.4598 26.921H11.9598ZM12.1151 25.2158C12.0135 25.7706 11.9598 26.3401 11.9598 26.921H12.4598C12.4598 26.371 12.5107 25.8316 12.6069 25.3058L12.1151 25.2158ZM7.51731 32.3626C6.6982 32.3626 6.07281 31.7613 6.07281 31.0711H5.57281C5.57281 32.0809 6.46764 32.8626 7.51731 32.8626V32.3626ZM14.1506 32.3626H7.51731V32.8626H14.1506V32.3626ZM12.3471 29.6003C12.6848 30.7458 13.2331 31.8122 13.951 32.7632L14.3501 32.462C13.6668 31.5568 13.1466 30.5441 12.8267 29.4589L12.3471 29.6003ZM7.51731 29.7796H12.5869V29.2796H7.51731V29.7796ZM6.07281 31.0711C6.07281 30.3809 6.6982 29.7796 7.51731 29.7796V29.2796C6.46764 29.2796 5.57281 30.0613 5.57281 31.0711H6.07281ZM23.2893 35.5642C18.0141 35.5642 13.7633 31.6649 13.7633 26.921H13.2633C13.2633 31.9845 17.7835 36.0642 23.2893 36.0642V35.5642ZM32.8152 26.921C32.8152 31.6649 28.5644 35.5642 23.2893 35.5642V36.0642C28.795 36.0642 33.3152 31.9845 33.3152 26.921H32.8152ZM23.2893 18.2777C28.5644 18.2777 32.8152 22.177 32.8152 26.921H33.3152C33.3152 21.8574 28.795 17.7777 23.2893 17.7777V18.2777ZM13.7633 26.921C13.7633 22.177 18.0141 18.2777 23.2893 18.2777V17.7777C17.7835 17.7777 13.2633 21.8574 13.2633 26.921H13.7633ZM23.2861 25.9509C22.4503 25.9509 21.8768 25.4244 21.8768 24.8945H21.3768C21.3768 25.8053 22.2921 26.4509 23.2861 26.4509V25.9509ZM26.7039 28.8797C26.7039 27.2269 25.13 25.9509 23.2861 25.9509V26.4509C24.9357 26.4509 26.2039 27.5783 26.2039 28.8797H26.7039ZM24.0911 31.726C25.5593 31.4215 26.7039 30.2851 26.7039 28.8797H26.2039C26.2039 29.989 25.2889 30.967 23.9896 31.2364L24.0911 31.726ZM24.2904 31.7776V31.4812H23.7904V31.7776H24.2904ZM23.2861 32.7137C23.8179 32.7137 24.2904 32.3163 24.2904 31.7776H23.7904C23.7904 31.9967 23.5873 32.2137 23.2861 32.2137V32.7137ZM22.2819 31.7776C22.2819 32.3163 22.7544 32.7137 23.2861 32.7137V32.2137C22.9849 32.2137 22.7819 31.9967 22.7819 31.7776H22.2819ZM22.2819 31.4812V31.7776H22.7819V31.4812H22.2819ZM19.8684 28.8797C19.8684 30.2851 21.013 31.4215 22.4811 31.726L22.5827 31.2364C21.2834 30.967 20.3684 29.989 20.3684 28.8797H19.8684ZM20.8726 27.9436C20.3408 27.9436 19.8684 28.341 19.8684 28.8797H20.3684C20.3684 28.6607 20.5714 28.4436 20.8726 28.4436V27.9436ZM21.8768 28.8797C21.8768 28.341 21.4044 27.9436 20.8726 27.9436V28.4436C21.1738 28.4436 21.3768 28.6606 21.3768 28.8797H21.8768ZM23.2861 29.9363C22.4503 29.9363 21.8768 29.4097 21.8768 28.8797H21.3768C21.3768 29.7906 22.2921 30.4363 23.2861 30.4363V29.9363ZM24.6954 28.8797C24.6954 29.4097 24.122 29.9363 23.2861 29.9363V30.4363C24.2802 30.4363 25.1954 29.7906 25.1954 28.8797H24.6954ZM23.2861 27.8232C24.122 27.8232 24.6954 28.3497 24.6954 28.8797H25.1954C25.1954 27.9688 24.2802 27.3232 23.2861 27.3232V27.8232ZM19.8684 24.8945C19.8684 26.5472 21.4423 27.8232 23.2861 27.8232V27.3232C21.6365 27.3232 20.3684 26.1958 20.3684 24.8945H19.8684ZM22.4811 22.0482C21.013 22.3527 19.8684 23.4891 19.8684 24.8945H20.3684C20.3684 23.7852 21.2834 22.8072 22.5827 22.5378L22.4811 22.0482ZM22.2819 21.9361V22.293H22.7819V21.9361H22.2819ZM23.2861 21C22.7544 21 22.2819 21.3974 22.2819 21.9361H22.7819C22.7819 21.7171 22.9849 21.5 23.2861 21.5V21ZM24.2904 21.9361C24.2904 21.3974 23.8179 21 23.2861 21V21.5C23.5873 21.5 23.7904 21.7171 23.7904 21.9361H24.2904ZM24.2904 22.293V21.9361H23.7904V22.293H24.2904ZM26.7039 24.8945C26.7039 23.4891 25.5593 22.3527 24.0911 22.0482L23.9896 22.5378C25.2889 22.8072 26.2039 23.7852 26.2039 24.8945H26.7039ZM25.6997 25.8306C26.2315 25.8306 26.7039 25.4332 26.7039 24.8945H26.2039C26.2039 25.1135 26.0009 25.3306 25.6997 25.3306V25.8306ZM24.6954 24.8945C24.6954 25.4332 25.1679 25.8306 25.6997 25.8306V25.3306C25.3985 25.3306 25.1954 25.1135 25.1954 24.8945H24.6954ZM23.2861 23.8379C24.122 23.8379 24.6954 24.3645 24.6954 24.8945H25.1954C25.1954 23.9836 24.2802 23.3379 23.2861 23.3379V23.8379ZM21.8768 24.8945C21.8768 24.3645 22.4503 23.8379 23.2861 23.8379V23.3379C22.2921 23.3379 21.3768 23.9836 21.3768 24.8945H21.8768Z" fill="#FF872C"/>
</svg>
