<svg id="Capa_1" enable-background="new 0 0 512 512" height="512" viewBox="0 0 512 512" width="512" xmlns="http://www.w3.org/2000/svg"><g id="XMLID_1098_"><path id="XMLID_1069_" d="m502 58h-492v444h407.619l84.381-84.381z" fill="#fff"/><path id="XMLID_1070_" d="m10 58h492v112h-492z" fill="#ff7d97"/><path id="XMLID_1053_" d="m417.619 502 84.381-84.381h-84.381z" fill="#ffcd69"/><path id="XMLID_28_" d="m313.103 309h-113.952c-10.507 0-19.024 8.517-19.024 19.024v68.976h152v-68.976c0-10.507-8.517-19.024-19.024-19.024z" fill="#ffcd69"/><g id="XMLID_213_"><path id="XMLID_216_" d="m502 48h-43.746v-12.691c0-19.47-15.839-35.309-35.309-35.309s-35.309 15.839-35.309 35.309v12.691h-96.2v-12.691c0-19.47-15.839-35.309-35.309-35.309s-35.309 15.839-35.309 35.309v12.691h-96.2v-12.691c0-19.47-15.839-35.309-35.309-35.309s-35.309 15.839-35.309 35.309v12.691h-44c-5.523 0-10 4.477-10 10v444c0 5.523 4.477 10 10 10h407.619c2.652 0 5.196-1.054 7.071-2.929l84.381-84.381c1.875-1.875 2.929-4.419 2.929-7.071v-359.619c0-5.523-4.477-10-10-10zm-94.364-12.691c0-8.441 6.868-15.309 15.309-15.309s15.309 6.868 15.309 15.309v12.691h-30.618zm-166.818 0c0-8.441 6.868-15.309 15.309-15.309s15.309 6.868 15.309 15.309v12.691h-30.618zm-166.818 0c0-8.441 6.868-15.309 15.309-15.309s15.309 6.868 15.309 15.309v12.691h-30.618zm353.619 442.549v-50.239h50.239zm-10-70.239c-5.523 0-10 4.477-10 10v74.381h-387.619v-312h191c5.523 0 10-4.477 10-10s-4.477-10-10-10h-191v-92h34v12.691c0 19.47 15.839 35.309 35.309 35.309 5.523 0 10-4.477 10-10s-4.477-10-10-10c-8.441 0-15.309-6.868-15.309-15.309v-12.691h146.818v12.691c0 19.47 15.839 35.309 35.309 35.309 5.523 0 10-4.477 10-10s-4.477-10-10-10c-8.442 0-15.309-6.868-15.309-15.309v-12.691h146.818v12.691c0 19.47 15.839 35.309 35.309 35.309 5.523 0 10-4.477 10-10s-4.477-10-10-10c-8.441 0-15.309-6.868-15.309-15.309v-12.691h84.364v92h-191c-5.523 0-10 4.477-10 10s4.477 10 10 10h191v227.619z"/><path id="XMLID_252_" d="m350 387h-7.873v-58.976c0-16.004-13.02-29.024-29.024-29.024h-2.976v-24c0-5.523-4.477-10-10-10s-10 4.477-10 10v24h-24v-24c0-5.523-4.477-10-10-10s-10 4.477-10 10v24h-24v-24c0-5.523-4.477-10-10-10s-10 4.477-10 10v24h-2.976c-16.004 0-29.024 13.02-29.024 29.024v58.976h-8.127c-5.523 0-10 4.477-10 10s4.477 10 10 10h188c5.523 0 10-4.477 10-10s-4.477-10-10-10zm-159.873 0v-58.976c0-4.976 4.048-9.024 9.024-9.024h113.952c4.976 0 9.024 4.048 9.024 9.024v58.976z"/><path id="XMLID_253_" d="m256 180c2.63 0 5.21-1.07 7.07-2.93s2.93-4.44 2.93-7.07-1.07-5.21-2.93-7.07-4.44-2.93-7.07-2.93-5.21 1.07-7.07 2.93-2.93 4.44-2.93 7.07 1.07 5.21 2.93 7.07 4.44 2.93 7.07 2.93z"/></g></g></svg>