<svg height="512pt" viewBox="0 0 512 512" width="512pt" xmlns="http://www.w3.org/2000/svg"><path d="m73.144531 146.285156c-40.332031 0-73.144531-32.804687-73.144531-73.140625 0-40.339843 32.8125-73.144531 73.144531-73.144531 40.328125 0 73.140625 32.804688 73.140625 73.144531 0 40.335938-32.8125 73.140625-73.140625 73.140625zm0-109.714844c-20.171875 0-36.574219 16.414063-36.574219 36.574219 0 20.160157 16.402344 36.570313 36.574219 36.570313 20.167969 0 36.570313-16.410156 36.570313-36.570313 0-20.160156-16.402344-36.574219-36.570313-36.574219zm0 0"/><path d="m256 146.285156c-40.332031 0-73.144531-32.804687-73.144531-73.140625 0-40.339843 32.8125-73.144531 73.144531-73.144531s73.144531 32.804688 73.144531 73.144531c0 40.335938-32.8125 73.140625-73.144531 73.140625zm0-109.714844c-20.167969 0-36.570312 16.414063-36.570312 36.574219 0 20.160157 16.402343 36.570313 36.570312 36.570313s36.570312-16.410156 36.570312-36.570313c0-20.160156-16.402343-36.574219-36.570312-36.574219zm0 0"/><path d="m438.855469 146.285156c-40.328125 0-73.140625-32.804687-73.140625-73.140625 0-40.339843 32.8125-73.144531 73.140625-73.144531 40.332031 0 73.144531 32.804688 73.144531 73.144531 0 40.335938-32.8125 73.140625-73.144531 73.140625zm0-109.714844c-20.167969 0-36.570313 16.414063-36.570313 36.574219 0 20.160157 16.402344 36.570313 36.570313 36.570313 20.171875 0 36.574219-16.410156 36.574219-36.570313 0-20.160156-16.402344-36.574219-36.574219-36.574219zm0 0"/><path d="m73.144531 329.144531c-40.332031 0-73.144531-32.804687-73.144531-73.144531s32.8125-73.144531 73.144531-73.144531c40.328125 0 73.140625 32.804687 73.140625 73.144531s-32.8125 73.144531-73.140625 73.144531zm0-109.714843c-20.171875 0-36.574219 16.410156-36.574219 36.570312s16.402344 36.570312 36.574219 36.570312c20.167969 0 36.570313-16.410156 36.570313-36.570312s-16.402344-36.570312-36.570313-36.570312zm0 0"/><path d="m256 329.144531c-40.332031 0-73.144531-32.804687-73.144531-73.144531s32.8125-73.144531 73.144531-73.144531 73.144531 32.804687 73.144531 73.144531-32.8125 73.144531-73.144531 73.144531zm0-109.714843c-20.167969 0-36.570312 16.410156-36.570312 36.570312s16.402343 36.570312 36.570312 36.570312 36.570312-16.410156 36.570312-36.570312-16.402343-36.570312-36.570312-36.570312zm0 0"/><path d="m438.855469 329.144531c-40.328125 0-73.140625-32.804687-73.140625-73.144531s32.8125-73.144531 73.140625-73.144531c40.332031 0 73.144531 32.804687 73.144531 73.144531s-32.8125 73.144531-73.144531 73.144531zm0-109.714843c-20.167969 0-36.570313 16.410156-36.570313 36.570312s16.402344 36.570312 36.570313 36.570312c20.171875 0 36.574219-16.410156 36.574219-36.570312s-16.402344-36.570312-36.574219-36.570312zm0 0"/><path d="m73.144531 512c-40.332031 0-73.144531-32.804688-73.144531-73.144531 0-40.335938 32.8125-73.140625 73.144531-73.140625 40.328125 0 73.140625 32.804687 73.140625 73.140625 0 40.339843-32.8125 73.144531-73.140625 73.144531zm0-109.714844c-20.171875 0-36.574219 16.410156-36.574219 36.570313 0 20.160156 16.402344 36.574219 36.574219 36.574219 20.167969 0 36.570313-16.414063 36.570313-36.574219 0-20.160157-16.402344-36.570313-36.570313-36.570313zm0 0"/><path d="m256 512c-40.332031 0-73.144531-32.804688-73.144531-73.144531 0-40.335938 32.8125-73.140625 73.144531-73.140625s73.144531 32.804687 73.144531 73.140625c0 40.339843-32.8125 73.144531-73.144531 73.144531zm0-109.714844c-20.167969 0-36.570312 16.410156-36.570312 36.570313 0 20.160156 16.402343 36.574219 36.570312 36.574219s36.570312-16.414063 36.570312-36.574219c0-20.160157-16.402343-36.570313-36.570312-36.570313zm0 0"/><path d="m438.855469 512c-40.328125 0-73.140625-32.804688-73.140625-73.144531 0-40.335938 32.8125-73.140625 73.140625-73.140625 40.332031 0 73.144531 32.804687 73.144531 73.140625 0 40.339843-32.8125 73.144531-73.144531 73.144531zm0-109.714844c-20.167969 0-36.570313 16.410156-36.570313 36.570313 0 20.160156 16.402344 36.574219 36.570313 36.574219 20.171875 0 36.574219-16.414063 36.574219-36.574219 0-20.160157-16.402344-36.570313-36.574219-36.570313zm0 0"/></svg>