<svg id="Icons" height="512" viewBox="0 0 74 74" width="512" xmlns="http://www.w3.org/2000/svg"><path d="m29.71 72h-2.94a1 1 0 1 1 0-2h2.94a1 1 0 1 1 0 2z"/><path d="m60 72h-13.35a1 1 0 0 1 0-2h13.35a2.042 2.042 0 0 0 2.04-2.04v-30.43a2.047 2.047 0 0 0 -2.04-2.05h-45.58a2.052 2.052 0 0 0 -2.05 2.05v30.43a2.047 2.047 0 0 0 2.05 2.04h5.35a1 1 0 0 1 0 2h-5.35a4.049 4.049 0 0 1 -4.05-4.04v-30.43a4.055 4.055 0 0 1 4.05-4.05h45.58a4.049 4.049 0 0 1 4.04 4.05v30.43a4.044 4.044 0 0 1 -4.04 4.04z"/><path d="m39.64 72h-2.93a1 1 0 0 1 0-2h2.93a1 1 0 0 1 0 2z"/><path d="m54.5 35.48h-34.585a1 1 0 0 1 -1-1v-14.187a18.293 18.293 0 0 1 36.586 0v14.187a1 1 0 0 1 -1.001 1zm-33.586-2h32.586v-13.187a16.293 16.293 0 0 0 -32.586 0z"/><path d="m39.6 61.9h-4.78a1.723 1.723 0 0 1 -1.72-1.724v-4.364a6.809 6.809 0 1 1 8.217 0v4.364a1.722 1.722 0 0 1 -1.717 1.724zm-4.5-2h4.217v-4.61a1 1 0 0 1 .464-.844 4.809 4.809 0 1 0 -5.144 0 1 1 0 0 1 .463.844z"/></svg>