<?xml version="1.0" encoding="iso-8859-1"?>
<!-- Generator: Adobe Illustrator 18.1.1, SVG Export Plug-In . SVG Version: 6.00 Build 0)  -->
<svg version="1.1" id="Capa_1" xmlns="http://www.w3.org/2000/svg" xmlns:xlink="http://www.w3.org/1999/xlink" x="0px" y="0px"
	 viewBox="0 0 45.016 45.016" style="enable-background:new 0 0 45.016 45.016;" xml:space="preserve">
<g>
	<path style="fill:rgb(0,0,0);" d="M44.726,34.735c-4.076-3.343-8.153-6.686-12.229-10.028c-0.389-0.318-1.045-0.451-1.414,0
		c-0.295,0.359-0.59,0.719-0.885,1.079c-1.048-0.96-2.096-1.92-3.144-2.88c2.202-4.088,2.363-9.063,0.26-13.372
		C24.626,4.03,18.446,0.921,12.438,1.73C6.413,2.542,1.443,7.261,0.267,13.218c-1.186,6.011,1.66,12.186,6.923,15.283
		c5.033,2.961,11.431,2.386,15.987-1.053c1.077,0.986,2.153,1.973,3.229,2.959c-0.336,0.409-0.671,0.818-1.007,1.228
		c-0.317,0.388-0.45,1.045,0,1.414c4.076,3.343,8.153,6.686,12.229,10.028c0.053,0.043,0.109,0.057,0.164,0.088
		c0.354,0.306,0.864,0.383,1.25-0.088c1.894-2.31,3.787-4.619,5.682-6.929C45.044,35.761,45.177,35.104,44.726,34.735z
		 M7.899,26.593c-5.027-3.049-7.074-9.353-5.161-14.831c1.908-5.465,7.751-8.886,13.441-8.061
		c5.803,0.841,10.312,5.765,10.652,11.613c0.199,3.432-1.072,6.802-3.432,9.291C19.332,28.785,12.89,29.62,7.899,26.593z
		 M24.332,26.472c0.16-0.149,0.325-0.293,0.478-0.45c0.001-0.002,0.003-0.002,0.004-0.003c0.538-0.568,1.021-1.172,1.453-1.803
		c0.993,0.91,1.986,1.82,2.979,2.73c-0.629,0.767-1.258,1.533-1.887,2.3C26.351,28.322,25.341,27.397,24.332,26.472z M38.199,40.97
		c-3.563-2.922-7.127-5.844-10.69-8.767c1.474-1.797,2.947-3.593,4.421-5.39c3.563,2.922,7.126,5.844,10.689,8.767
		C41.145,37.376,39.672,39.173,38.199,40.97z"/>
	<path style="fill:rgb(0,0,0);" d="M21.366,8.005C16.855,4.043,9.756,4.812,6.072,9.489C2.61,13.884,3.305,20.354,7.479,24.02
		c4.207,3.694,10.708,3.304,14.582-0.659C26.185,18.988,25.895,11.982,21.366,8.005z M21.354,22.654
		c-2.106,2.154-5.009,3.193-8.003,2.901c-3.021-0.295-5.729-2.166-7.252-4.756c-1.492-2.538-1.635-5.664-0.582-8.385
		c1.098-2.837,3.644-4.949,6.555-5.711c4.137-1.083,8.531,0.874,10.675,4.522C24.893,14.877,24.229,19.606,21.354,22.654z"/>
</g>
<g>
</g>
<g>
</g>
<g>
</g>
<g>
</g>
<g>
</g>
<g>
</g>
<g>
</g>
<g>
</g>
<g>
</g>
<g>
</g>
<g>
</g>
<g>
</g>
<g>
</g>
<g>
</g>
<g>
</g>
</svg>
